<svg width="1280" height="720" xmlns="http://www.w3.org/2000/svg" xmlns:xlink="http://www.w3.org/1999/xlink" overflow="hidden"><g><rect x="0" y="0" width="1280" height="720" fill="#FFFFFF"/><path d="M143.5 311.834C143.5 301.156 152.156 292.5 162.834 292.5L345.166 292.5C355.844 292.5 364.5 301.156 364.5 311.834L364.5 389.166C364.5 399.844 355.844 408.5 345.166 408.5L162.834 408.5C152.156 408.5 143.5 399.844 143.5 389.166Z" stroke="#000000" stroke-width="1.33333" stroke-miterlimit="8" fill="#FFFFFF" fill-rule="evenodd"/><text font-family="Calibri,Calibri_MSFontService,sans-serif" font-weight="400" font-size="24" transform="translate(161.731 343)">Search for relevant</text><text font-family="Calibri,Calibri_MSFontService,sans-serif" font-weight="400" font-size="24" transform="translate(164.598 372)">social media posts</text><path d="M395.5 311.834C395.5 301.156 404.156 292.5 414.834 292.5L597.166 292.5C607.844 292.5 616.5 301.156 616.5 311.834L616.5 389.166C616.5 399.844 607.844 408.5 597.166 408.5L414.834 408.5C404.156 408.5 395.5 399.844 395.5 389.166Z" stroke="#000000" stroke-width="1.33333" stroke-miterlimit="8" fill="#FFFFFF" fill-rule="evenodd"/><text font-family="Calibri,Calibri_MSFontService,sans-serif" font-weight="400" font-size="24" transform="translate(427.093 343)">Estimate system</text><text font-family="Calibri,Calibri_MSFontService,sans-serif" font-weight="400" font-size="24" transform="translate(450.026 372)">parameters</text><path d="M652.5 310.834C652.5 300.156 661.156 291.5 671.834 291.5L854.166 291.5C864.844 291.5 873.5 300.156 873.5 310.834L873.5 388.166C873.5 398.844 864.844 407.5 854.166 407.5L671.834 407.5C661.156 407.5 652.5 398.844 652.5 388.166Z" stroke="#000000" stroke-width="1.33333" stroke-miterlimit="8" fill="#FFFFFF" fill-rule="evenodd"/><text font-family="Calibri,Calibri_MSFontService,sans-serif" font-weight="400" font-size="24" transform="translate(689.392 357)">Run simulation</text><path d="M908.5 311.834C908.5 301.156 917.156 292.5 927.834 292.5L1111.17 292.5C1121.84 292.5 1130.5 301.156 1130.5 311.834L1130.5 389.166C1130.5 399.844 1121.84 408.5 1111.17 408.5L927.834 408.5C917.156 408.5 908.5 399.844 908.5 389.166Z" stroke="#000000" stroke-width="1.33333" stroke-miterlimit="8" fill="#FFFFFF" fill-rule="evenodd"/><text font-family="Calibri,Calibri_MSFontService,sans-serif" font-weight="400" font-size="24" transform="translate(945.162 329)">Power demand</text><text font-family="Calibri,Calibri_MSFontService,sans-serif" font-weight="400" font-size="24" transform="translate(925.208 358)">exceeds threshold?</text><text font-family="Calibri,Calibri_MSFontService,sans-serif" font-weight="400" font-size="24" transform="translate(984.715 387)">Yes/No</text><path d="M364.5 350.167 388.527 350.167 388.527 350.833 364.5 350.833ZM387.194 346.5 395.194 350.5 387.194 354.5Z"/><path d="M0.00630033-0.333274 28.606 0.207386 28.5934 0.873933-0.00630033 0.333274ZM27.3422-3.48383 35.2652 0.666667 27.191 4.51474Z" transform="matrix(1 0 0 -1 616.5 350.167)"/><path d="M873.506 349.167 902.106 349.707 902.093 350.374 873.494 349.833ZM900.842 346.016 908.765 350.167 900.691 354.015Z"/></g></svg>