<?xml version="1.0" encoding="UTF-8" standalone="no"?>
<svg
   width="1269.2765"
   height="267.11349"
   overflow="hidden"
   version="1.1"
   id="svg25"
   sodipodi:docname="parameter_estimation_process.svg"
   inkscape:version="1.3 (0e150ed6c4, 2023-07-21)"
   xmlns:inkscape="http://www.inkscape.org/namespaces/inkscape"
   xmlns:sodipodi="http://sodipodi.sourceforge.net/DTD/sodipodi-0.dtd"
   xmlns="http://www.w3.org/2000/svg"
   xmlns:svg="http://www.w3.org/2000/svg">
  <defs
     id="defs25">
    <clipPath
       clipPathUnits="userSpaceOnUse"
       id="clipPath25">
      <rect
         style="fill:#ffffff"
         id="rect26"
         width="1269.2765"
         height="267.11349"
         x="7.7989335"
         y="203.74715" />
    </clipPath>
  </defs>
  <sodipodi:namedview
     id="namedview25"
     pagecolor="#505050"
     bordercolor="#eeeeee"
     borderopacity="1"
     inkscape:showpageshadow="0"
     inkscape:pageopacity="0"
     inkscape:pagecheckerboard="0"
     inkscape:deskcolor="#505050"
     showgrid="false"
     inkscape:zoom="1.0257813"
     inkscape:cx="632.20107"
     inkscape:cy="156.46611"
     inkscape:window-width="1920"
     inkscape:window-height="991"
     inkscape:window-x="-9"
     inkscape:window-y="-9"
     inkscape:window-maximized="1"
     inkscape:current-layer="svg25" />
  <g
     id="g25"
     clip-path="url(#clipPath25)"
     transform="translate(-7.7989335,-203.74715)">
    <rect
       x="0"
       y="0"
       width="1280"
       height="720"
       fill="#ffffff"
       id="rect1" />
    <path
       d="m 20.5001,296.834 c 0,-10.678 8.6559,-19.334 19.3336,-19.334 H 222.166 c 10.678,0 19.334,8.656 19.334,19.334 v 77.332 c 0,10.678 -8.656,19.334 -19.334,19.334 H 39.8337 c -10.6777,0 -19.3336,-8.656 -19.3336,-19.334 z"
       stroke="#000000"
       stroke-width="1.33333"
       stroke-miterlimit="8"
       fill="#ffffff"
       fill-rule="evenodd"
       id="path1" />
    <text
       font-family="Calibri, Calibri_MSFontService, sans-serif"
       font-weight="400"
       font-size="24px"
       transform="translate(38.3026,328)"
       id="text1">Search for relevant</text>
    <text
       font-family="Calibri, Calibri_MSFontService, sans-serif"
       font-weight="400"
       font-size="24px"
       transform="translate(41.1693,357)"
       id="text2">social media posts</text>
    <path
       d="m 272.5,296.834 c 0,-10.678 8.656,-19.334 19.334,-19.334 h 182.332 c 10.678,0 19.334,8.656 19.334,19.334 v 77.332 c 0,10.678 -8.656,19.334 -19.334,19.334 H 291.834 c -10.678,0 -19.334,-8.656 -19.334,-19.334 z"
       stroke="#000000"
       stroke-width="1.33333"
       stroke-miterlimit="8"
       fill="#ffffff"
       fill-rule="evenodd"
       id="path2" />
    <text
       font-family="Calibri, Calibri_MSFontService, sans-serif"
       font-weight="400"
       font-size="24px"
       transform="translate(293.004,299)"
       id="text3">Count the amount</text>
    <text
       font-family="Calibri, Calibri_MSFontService, sans-serif"
       font-weight="400"
       font-size="24px"
       transform="translate(309.117,328)"
       id="text4">of social media</text>
    <text
       font-family="Calibri, Calibri_MSFontService, sans-serif"
       font-weight="400"
       font-size="24px"
       transform="translate(294.704,357)"
       id="text5">posts over a given</text>
    <text
       font-family="Calibri, Calibri_MSFontService, sans-serif"
       font-weight="400"
       font-size="24px"
       transform="translate(306.311,386)"
       id="text6">amount of time</text>
    <path
       d="m 528.5,296.667 c 0,-10.586 8.581,-19.167 19.167,-19.167 h 183.666 c 10.586,0 19.167,8.581 19.167,19.167 v 76.666 c 0,10.586 -8.581,19.167 -19.167,19.167 H 547.667 c -10.586,0 -19.167,-8.581 -19.167,-19.167 z"
       stroke="#000000"
       stroke-width="1.33333"
       stroke-miterlimit="8"
       fill="#ffffff"
       fill-rule="evenodd"
       id="path6" />
    <text
       font-family="Calibri, Calibri_MSFontService, sans-serif"
       font-weight="400"
       font-size="24px"
       transform="translate(564.277,328)"
       id="text7">Smoothen</text>
    <text
       font-family="Calibri, Calibri_MSFontService, sans-serif"
       font-weight="400"
       font-size="24px"
       transform="translate(670.61,328)"
       id="text8">data</text>
    <text
       font-family="Calibri, Calibri_MSFontService, sans-serif"
       font-weight="400"
       font-size="24px"
       transform="translate(619.604,357)"
       id="text9">plot</text>
    <path
       d="m 785.5,296.834 c 0,-10.678 8.656,-19.334 19.334,-19.334 h 182.332 c 10.678,0 19.334,8.656 19.334,19.334 v 77.332 c 0,10.678 -8.656,19.334 -19.334,19.334 H 804.834 c -10.678,0 -19.334,-8.656 -19.334,-19.334 z"
       stroke="#000000"
       stroke-width="1.33333"
       stroke-miterlimit="8"
       fill="#ffffff"
       fill-rule="evenodd"
       id="path9" />
    <text
       font-family="Calibri, Calibri_MSFontService, sans-serif"
       font-weight="400"
       font-size="24px"
       transform="translate(850.742,327)"
       id="text10">Minimize</text>
    <text
       font-family="'Cambria Math', 'Cambria Math_MSFontService', sans-serif"
       font-weight="400"
       font-size="24px"
       transform="translate(800.222,357)"
       id="text11">(</text>
    <text
       font-family="'Cambria Math', 'Cambria Math_MSFontService', sans-serif"
       font-weight="400"
       font-size="24px"
       transform="translate(810.222,357)"
       id="text12">ğ¼</text>
    <path
       d="m 840.957,338.854 c 2.281,0.601 4.033,1.9 5.256,3.896 1.223,1.996 1.834,4.404 1.834,7.225 0,2.828 -0.609,5.236 -1.828,7.224 -1.219,1.989 -2.973,3.283 -5.262,3.885 l -0.281,-0.902 c 1.805,-0.602 3.146,-1.789 4.025,-3.563 0.879,-1.773 1.319,-4.027 1.319,-6.762 0,-2.64 -0.438,-4.834 -1.313,-6.58 -0.875,-1.746 -2.23,-2.92 -4.066,-3.521 z m -11.609,0 0.316,0.902 c -1.828,0.601 -3.181,1.775 -4.06,3.521 -0.879,1.746 -1.318,3.94 -1.318,6.58 0,2.735 0.439,4.989 1.318,6.762 0.879,1.774 2.221,2.961 4.025,3.563 l -0.281,0.902 c -2.289,-0.602 -4.043,-1.896 -5.262,-3.885 -1.218,-1.988 -1.828,-4.396 -1.828,-7.224 0,-2.821 0.612,-5.229 1.834,-7.225 1.223,-1.996 2.975,-3.295 5.256,-3.896 z"
       fill-rule="evenodd"
       id="path12" />
    <text
       font-family="'Cambria Math', 'Cambria Math_MSFontService', sans-serif"
       font-weight="400"
       font-size="24px"
       transform="translate(830.109,357)"
       id="text13">ğ‘¡</text>
    <text
       font-family="'Cambria Math', 'Cambria Math_MSFontService', sans-serif"
       font-weight="400"
       font-size="24px"
       transform="translate(855.489,357)"
       id="text14">âˆ’</text>
    <text
       font-family="'Cambria Math', 'Cambria Math_MSFontService', sans-serif"
       font-weight="400"
       font-size="24px"
       transform="translate(878.822,357)"
       id="text15">ğ‘›</text>
    <text
       font-family="'Cambria Math', 'Cambria Math_MSFontService', sans-serif"
       font-weight="400"
       font-size="18px"
       transform="translate(892.656,362)"
       id="text16">ğ‘ğ‘œğ‘ ğ‘¡ğ‘ </text>
    <path
       d="m 960.817,338.854 c 2.282,0.601 4.033,1.9 5.256,3.896 1.223,1.996 1.834,4.404 1.834,7.225 0,2.828 -0.609,5.236 -1.828,7.224 -1.219,1.989 -2.973,3.283 -5.262,3.885 l -0.281,-0.902 c 1.805,-0.602 3.146,-1.789 4.025,-3.563 0.879,-1.773 1.319,-4.027 1.319,-6.762 0,-2.64 -0.438,-4.834 -1.313,-6.58 -0.875,-1.746 -2.23,-2.92 -4.066,-3.521 z m -11.609,0 0.316,0.902 c -1.828,0.601 -3.181,1.775 -4.06,3.521 -0.879,1.746 -1.318,3.94 -1.318,6.58 0,2.735 0.439,4.989 1.318,6.762 0.879,1.774 2.221,2.961 4.025,3.563 l -0.281,0.902 c -2.289,-0.602 -4.043,-1.896 -5.262,-3.885 -1.218,-1.988 -1.828,-4.396 -1.828,-7.224 0,-2.821 0.612,-5.229 1.834,-7.225 1.223,-1.996 2.975,-3.295 5.256,-3.896 z"
       fill-rule="evenodd"
       id="path16" />
    <text
       font-family="'Cambria Math', 'Cambria Math_MSFontService', sans-serif"
       font-weight="400"
       font-size="24px"
       transform="translate(949.969,357)"
       id="text17">ğ‘¡</text>
    <text
       font-family="'Cambria Math', 'Cambria Math_MSFontService', sans-serif"
       font-weight="400"
       font-size="24px"
       transform="translate(970.016,357)"
       id="text18">)</text>
    <text
       font-family="'Cambria Math', 'Cambria Math_MSFontService', sans-serif"
       font-weight="400"
       font-size="18px"
       transform="translate(980.016,348)"
       id="text19">2</text>
    <path
       d="m 1031.5,296.834 c 0,-10.678 8.66,-19.334 19.33,-19.334 h 183.34 c 10.67,0 19.33,8.656 19.33,19.334 v 77.332 c 0,10.678 -8.66,19.334 -19.33,19.334 h -183.34 c -10.67,0 -19.33,-8.656 -19.33,-19.334 z"
       stroke="#000000"
       stroke-width="1.33333"
       stroke-miterlimit="8"
       fill="#ffffff"
       fill-rule="evenodd"
       id="path19" />
    <text
       font-family="Calibri, Calibri_MSFontService, sans-serif"
       font-weight="400"
       font-size="24px"
       transform="translate(1059.76,328)"
       id="text20">Solve differential</text>
    <text
       font-family="Calibri, Calibri_MSFontService, sans-serif"
       font-weight="400"
       font-size="24px"
       transform="translate(1093.49,357)"
       id="text21">equations</text>
    <path
       d="m 241.5,335.167 h 24.027 v 0.666 H 241.5 Z m 22.694,-3.667 8,4 -8,4 z"
       id="path21" />
    <path
       d="M 0.00630033,-0.333274 28.606,0.207386 28.5934,0.873933 -0.00630033,0.333274 Z M 27.3422,-3.48383 35.2652,0.666667 27.191,4.51474 Z"
       transform="matrix(1,0,0,-1,493.5,335.167)"
       id="path22" />
    <path
       d="m 750.506,334.167 28.6,0.54 -0.013,0.667 -28.599,-0.541 z m 27.336,-3.151 7.923,4.151 -8.074,3.848 z"
       id="path23" />
    <path
       d="m 896.167,278.833 v -51.762 h 246.873 v 43.762 h -0.67 v -43.428 l 0.33,0.333 H 896.5 l 0.333,-0.333 v 51.428 z m 250.533,-9.333 -4,8 -4,-8 z"
       id="path24" />
    <path
       d="m 1143.04,392.5 v 55.68 H 896.167 V 400.5 h 0.666 v 47.347 l -0.333,-0.333 h 246.2 l -0.33,0.333 V 392.5 Z m -250.54,9.333 4,-8 4,8 z"
       id="path25" />
  </g>
</svg>
