<svg width="1280" height="720" xmlns="http://www.w3.org/2000/svg" xmlns:xlink="http://www.w3.org/1999/xlink" overflow="hidden"><g><rect x="0" y="0" width="1280" height="720" fill="#FFFFFF"/><path d="M316.5 359C316.5 353.201 321.201 348.5 327 348.5L494 348.5C499.799 348.5 504.5 353.201 504.5 359L504.5 401C504.5 406.799 499.799 411.5 494 411.5L327 411.5C321.201 411.5 316.5 406.799 316.5 401Z" stroke="#000000" stroke-width="1.33333" stroke-miterlimit="8" fill="#FFFFFF" fill-rule="evenodd"/><text font-family="Calibri,Calibri_MSFontService,sans-serif" font-weight="400" font-size="24" transform="translate(358.599 387)">Recovered</text><path d="M720.5 359C720.5 353.201 725.201 348.5 731 348.5L898 348.5C903.799 348.5 908.5 353.201 908.5 359L908.5 401C908.5 406.799 903.799 411.5 898 411.5L731 411.5C725.201 411.5 720.5 406.799 720.5 401Z" stroke="#000000" stroke-width="1.33333" stroke-miterlimit="8" fill="#FFFFFF" fill-rule="evenodd"/><text font-family="Calibri,Calibri_MSFontService,sans-serif" font-weight="400" font-size="24" transform="translate(773.997 387)">Infected</text><path d="M531.5 176.167C531.5 170.276 536.276 165.5 542.167 165.5L707.833 165.5C713.724 165.5 718.5 170.276 718.5 176.167L718.5 218.833C718.5 224.724 713.724 229.5 707.833 229.5L542.167 229.5C536.276 229.5 531.5 224.724 531.5 218.833Z" stroke="#000000" stroke-width="1.33333" stroke-miterlimit="8" fill="#FFFFFF" fill-rule="evenodd"/><text font-family="Calibri,Calibri_MSFontService,sans-serif" font-weight="400" font-size="24" transform="translate(568.938 204)">Susceptible</text><path d="M0.188099-0.275191 169.051 115.147 168.675 115.697-0.188099 0.275191ZM170.02 111.367 174.367 119.184 165.505 117.972Z" transform="matrix(-1 0 0 1 559.867 228.5)"/><path d="M0.195516-0.269972 159.368 115.004 158.977 115.544-0.195516 0.269972ZM160.438 111.252 164.571 119.184 155.746 117.731Z" transform="matrix(1 0 0 -1 432.5 348.684)"/><text font-family="Cambria Math,Cambria Math_MSFontService,sans-serif" font-weight="400" font-size="19" transform="translate(392.483 272)">𝑔</text><text font-family="Cambria Math,Cambria Math_MSFontService,sans-serif" font-weight="400" font-size="14" transform="translate(403.343 276)">𝑛𝑒𝑖𝑔ℎ𝑏𝑜𝑟𝑠</text><text font-family="Cambria Math,Cambria Math_MSFontService,sans-serif" font-weight="400" font-size="19" transform="translate(597.391 279)">𝑝</text><text font-family="Cambria Math,Cambria Math_MSFontService,sans-serif" font-weight="400" font-size="14" transform="translate(606.997 282)">𝑓𝑜𝑟𝑔𝑒𝑡</text><path d="M683.709 228.24 826.901 343.25 826.484 343.769 683.291 228.76ZM828.158 339.556 831.89 347.684 823.148 345.793Z"/><path d="M799.321 347.947 651.555 232.86 651.964 232.334 799.73 347.421ZM650.354 236.572 646.5 228.5 655.269 230.26Z"/><path d="M1.61501e-07-0.333333 210.023-0.333232 210.023 0.333435-1.61501e-07 0.333333ZM208.69-3.9999 216.69 0.000104987 208.69 4.0001Z" transform="matrix(-1 0 0 1 721.19 380.5)"/><text font-family="Cambria Math,Cambria Math_MSFontService,sans-serif" font-weight="400" font-size="19" transform="translate(598.219 402)">𝑝</text><text font-family="Cambria Math,Cambria Math_MSFontService,sans-serif" font-weight="400" font-size="14" transform="translate(607.959 406)">𝑣𝑒𝑟𝑖𝑓𝑦</text><path d="M0 0.333333-24.0001 0.333333-23.6667 0-23.6667 117.714-24.0001 117.381 31.8366 117.381 31.5033 117.714 31.5033 100.381 32.17 100.381 32.17 118.048-24.3334 118.048-24.3334-0.333333 0-0.333333ZM27.8366 101.714 31.8366 93.7142 35.8366 101.714Z" transform="matrix(-6.12323e-17 -1 -1 6.12323e-17 410.214 412.337)"/><text font-family="Cambria Math,Cambria Math_MSFontService,sans-serif" font-weight="400" font-size="19" transform="translate(753.193 266)">𝑓</text><text font-family="Cambria Math,Cambria Math_MSFontService,sans-serif" font-weight="400" font-size="14" transform="translate(760.613 270)">𝑛𝑒𝑖𝑔ℎ𝑏𝑜𝑟𝑠</text><text font-family="Cambria Math,Cambria Math_MSFontService,sans-serif" font-weight="400" font-size="19" transform="translate(297.914 461)">1</text><text font-family="Cambria Math,Cambria Math_MSFontService,sans-serif" font-weight="400" font-size="19" transform="translate(312.394 461)">−</text><text font-family="Cambria Math,Cambria Math_MSFontService,sans-serif" font-weight="400" font-size="19" transform="translate(330.541 461)">𝑝</text><text font-family="Cambria Math,Cambria Math_MSFontService,sans-serif" font-weight="400" font-size="14" transform="translate(340.147 465)">𝑓𝑜𝑟𝑔𝑒𝑡</text><path d="M0 0.333333-24.0002 0.333333-23.6669 0-23.6669 55.8369-24.0002 55.5036 93.7142 55.5036 93.3809 55.8369 93.3809 38.5034 94.0476 38.5034 94.0476 56.1702-24.3336 56.1702-24.3336-0.333333 0-0.333333ZM89.7142 39.8367 93.7142 31.8367 97.7142 39.8367Z" transform="matrix(1 -1.22465e-16 -1.22465e-16 -1 531.5 197.337)"/><path d="M0 0.333333-24.0002 0.333333-23.6669 0-23.6669 55.8369-24.0002 55.5036 93.7142 55.5036 93.3809 55.8369 93.3809 38.5034 94.0476 38.5034 94.0476 56.1702-24.3336 56.1702-24.3336-0.333333 0-0.333333ZM89.7142 39.8367 93.7142 31.8367 97.7142 39.8367Z" transform="matrix(-1 0 0 1 908.214 380.5)"/><text font-family="Cambria Math,Cambria Math_MSFontService,sans-serif" font-weight="400" font-size="19" transform="translate(471.81 121)">1</text><text font-family="Cambria Math,Cambria Math_MSFontService,sans-serif" font-weight="400" font-size="19" transform="translate(486.29 121)">−</text><text font-family="Cambria Math,Cambria Math_MSFontService,sans-serif" font-weight="400" font-size="19" transform="translate(504.436 121)">𝑔</text><text font-family="Cambria Math,Cambria Math_MSFontService,sans-serif" font-weight="400" font-size="14" transform="translate(515.296 125)">𝑛𝑒𝑖𝑔ℎ𝑏𝑜𝑟𝑠</text><text font-family="Cambria Math,Cambria Math_MSFontService,sans-serif" font-weight="400" font-size="19" transform="translate(588.996 121)">−</text><text font-family="Cambria Math,Cambria Math_MSFontService,sans-serif" font-weight="400" font-size="19" transform="translate(607.143 121)">𝑓</text><text font-family="Cambria Math,Cambria Math_MSFontService,sans-serif" font-weight="400" font-size="14" transform="translate(614.563 125)">𝑛𝑒𝑖𝑔ℎ𝑏𝑜𝑟𝑠</text><text font-family="Cambria Math,Cambria Math_MSFontService,sans-serif" font-weight="400" font-size="19" transform="translate(824.614 464)">1</text><text font-family="Cambria Math,Cambria Math_MSFontService,sans-serif" font-weight="400" font-size="19" transform="translate(839.094 464)">−</text><text font-family="Cambria Math,Cambria Math_MSFontService,sans-serif" font-weight="400" font-size="19" transform="translate(857.241 464)">𝑝</text><text font-family="Cambria Math,Cambria Math_MSFontService,sans-serif" font-weight="400" font-size="14" transform="translate(866.847 468)">𝑓𝑜𝑟𝑔𝑒𝑡</text><text font-family="Cambria Math,Cambria Math_MSFontService,sans-serif" font-weight="400" font-size="19" transform="translate(917.801 464)">−</text><text font-family="Cambria Math,Cambria Math_MSFontService,sans-serif" font-weight="400" font-size="19" transform="translate(935.947 464)">𝑝</text><text font-family="Cambria Math,Cambria Math_MSFontService,sans-serif" font-weight="400" font-size="14" transform="translate(945.687 468)">𝑣𝑒𝑟𝑖𝑓𝑦</text></g></svg>