<?xml version="1.0" encoding="UTF-8" standalone="no"?>
<svg
   width="740.89868"
   height="397.74561"
   overflow="hidden"
   version="1.1"
   id="svg21"
   sodipodi:docname="Tambuscio_modified.svg"
   inkscape:version="1.3 (0e150ed6c4, 2023-07-21)"
   xmlns:inkscape="http://www.inkscape.org/namespaces/inkscape"
   xmlns:sodipodi="http://sodipodi.sourceforge.net/DTD/sodipodi-0.dtd"
   xmlns="http://www.w3.org/2000/svg"
   xmlns:svg="http://www.w3.org/2000/svg">
  <defs
     id="defs21">
    <clipPath
       clipPathUnits="userSpaceOnUse"
       id="clipPath21">
      <rect
         style="fill:#ffffff"
         id="rect22"
         width="740.89868"
         height="397.74561"
         x="264.18887"
         y="86.763138" />
    </clipPath>
  </defs>
  <sodipodi:namedview
     id="namedview21"
     pagecolor="#505050"
     bordercolor="#eeeeee"
     borderopacity="1"
     inkscape:showpageshadow="0"
     inkscape:pageopacity="0"
     inkscape:pagecheckerboard="0"
     inkscape:deskcolor="#505050"
     inkscape:zoom="1.0257813"
     inkscape:cx="375.81112"
     inkscape:cy="273.45011"
     inkscape:window-width="1920"
     inkscape:window-height="991"
     inkscape:window-x="-9"
     inkscape:window-y="-9"
     inkscape:window-maximized="1"
     inkscape:current-layer="svg21" />
  <g
     id="g21"
     clip-path="url(#clipPath21)"
     transform="translate(-264.18887,-86.763138)">
    <rect
       x="0"
       y="0"
       width="1280"
       height="720"
       fill="#ffffff"
       id="rect1" />
    <path
       d="m 316.5,359 c 0,-5.799 4.701,-10.5 10.5,-10.5 h 167 c 5.799,0 10.5,4.701 10.5,10.5 v 42 c 0,5.799 -4.701,10.5 -10.5,10.5 H 327 c -5.799,0 -10.5,-4.701 -10.5,-10.5 z"
       stroke="#000000"
       stroke-width="1.33333"
       stroke-miterlimit="8"
       fill="#ffffff"
       fill-rule="evenodd"
       id="path1" />
    <text
       font-family="Calibri, Calibri_MSFontService, sans-serif"
       font-weight="400"
       font-size="24px"
       transform="translate(358.599,387)"
       id="text1">Recovered</text>
    <path
       d="m 720.5,359 c 0,-5.799 4.701,-10.5 10.5,-10.5 h 167 c 5.799,0 10.5,4.701 10.5,10.5 v 42 c 0,5.799 -4.701,10.5 -10.5,10.5 H 731 c -5.799,0 -10.5,-4.701 -10.5,-10.5 z"
       stroke="#000000"
       stroke-width="1.33333"
       stroke-miterlimit="8"
       fill="#ffffff"
       fill-rule="evenodd"
       id="path2" />
    <text
       font-family="Calibri, Calibri_MSFontService, sans-serif"
       font-weight="400"
       font-size="24px"
       transform="translate(773.997,387)"
       id="text2">Infected</text>
    <path
       d="m 531.5,176.167 c 0,-5.891 4.776,-10.667 10.667,-10.667 h 165.666 c 5.891,0 10.667,4.776 10.667,10.667 v 42.666 c 0,5.891 -4.776,10.667 -10.667,10.667 H 542.167 c -5.891,0 -10.667,-4.776 -10.667,-10.667 z"
       stroke="#000000"
       stroke-width="1.33333"
       stroke-miterlimit="8"
       fill="#ffffff"
       fill-rule="evenodd"
       id="path3" />
    <text
       font-family="Calibri, Calibri_MSFontService, sans-serif"
       font-weight="400"
       font-size="24px"
       transform="translate(568.938,204)"
       id="text3">Susceptible</text>
    <path
       d="M 0.188099,-0.275191 169.051,115.147 168.675,115.697 -0.188099,0.275191 Z M 170.02,111.367 l 4.347,7.817 -8.862,-1.212 z"
       transform="matrix(-1,0,0,1,559.867,228.5)"
       id="path4" />
    <text
       font-family="'Cambria Math', 'Cambria Math_MSFontService', sans-serif"
       font-weight="400"
       font-size="19px"
       transform="translate(392.483,272)"
       id="text4">𝑔</text>
    <text
       font-family="'Cambria Math', 'Cambria Math_MSFontService', sans-serif"
       font-weight="400"
       font-size="14px"
       transform="translate(403.343,276)"
       id="text5">𝑛𝑒𝑖𝑔ℎ𝑏𝑜𝑟𝑠</text>
    <path
       d="m 683.709,228.24 143.192,115.01 -0.417,0.519 L 683.291,228.76 Z m 144.449,111.316 3.732,8.128 -8.742,-1.891 z"
       id="path5" />
    <path
       d="M 1.61501e-7,-0.333333 210.023,-0.333232 V 0.333435 L -1.61501e-7,0.333333 Z M 208.69,-3.9999 l 8,4.000004987 -8,3.999995013 z"
       transform="matrix(-1,0,0,1,721.19,380.5)"
       id="path6" />
    <text
       font-family="'Cambria Math', 'Cambria Math_MSFontService', sans-serif"
       font-weight="400"
       font-size="19px"
       transform="translate(598.219,402)"
       id="text6">𝑝</text>
    <text
       font-family="'Cambria Math', 'Cambria Math_MSFontService', sans-serif"
       font-weight="400"
       font-size="14px"
       transform="translate(607.959,406)"
       id="text7">𝑣𝑒𝑟𝑖𝑓𝑦</text>
    <path
       d="M 0,0.333333 H -24.0001 L -23.6667,0 v 117.714 l -0.3334,-0.333 h 55.8367 l -0.3333,0.333 V 100.381 H 32.17 v 17.667 H -24.3334 V -0.333333 H 0 Z M 27.8366,101.714 l 4,-7.9998 4,7.9998 z"
       transform="matrix(0,-1,-1,0,410.214,412.337)"
       id="path7" />
    <text
       font-family="'Cambria Math', 'Cambria Math_MSFontService', sans-serif"
       font-weight="400"
       font-size="19px"
       transform="translate(753.193,266)"
       id="text8">𝑓</text>
    <text
       font-family="'Cambria Math', 'Cambria Math_MSFontService', sans-serif"
       font-weight="400"
       font-size="14px"
       transform="translate(760.613,270)"
       id="text9">𝑛𝑒𝑖𝑔ℎ𝑏𝑜𝑟𝑠</text>
    <text
       font-family="'Cambria Math', 'Cambria Math_MSFontService', sans-serif"
       font-weight="400"
       font-size="19px"
       transform="translate(297.514,461)"
       id="text10">1</text>
    <path
       d="M 0,0.333333 H -24.0002 L -23.6669,0 v 55.8369 l -0.3333,-0.3333 H 93.7142 l -0.3333,0.3333 V 38.5034 h 0.6667 V 56.1702 H -24.3336 V -0.333333 H 0 Z m 89.7142,39.503367 4,-8 4,8 z"
       transform="matrix(1,0,0,-1,531.5,197.337)"
       id="path10" />
    <path
       d="M 0,0.333333 H -24.0002 L -23.6669,0 v 55.8369 l -0.3333,-0.3333 H 93.7142 l -0.3333,0.3333 V 38.5034 h 0.6667 V 56.1702 H -24.3336 V -0.333333 H 0 Z m 89.7142,39.503367 4,-8 4,8 z"
       transform="matrix(-1,0,0,1,908.214,380.5)"
       id="path11" />
    <text
       font-family="'Cambria Math', 'Cambria Math_MSFontService', sans-serif"
       font-weight="400"
       font-size="19px"
       transform="translate(471.81,121)"
       id="text11">1</text>
    <text
       font-family="'Cambria Math', 'Cambria Math_MSFontService', sans-serif"
       font-weight="400"
       font-size="19px"
       transform="translate(486.29,121)"
       id="text12">−</text>
    <text
       font-family="'Cambria Math', 'Cambria Math_MSFontService', sans-serif"
       font-weight="400"
       font-size="19px"
       transform="translate(504.436,121)"
       id="text13">𝑔</text>
    <text
       font-family="'Cambria Math', 'Cambria Math_MSFontService', sans-serif"
       font-weight="400"
       font-size="14px"
       transform="translate(515.296,125)"
       id="text14">𝑛𝑒𝑖𝑔ℎ𝑏𝑜𝑟𝑠</text>
    <text
       font-family="'Cambria Math', 'Cambria Math_MSFontService', sans-serif"
       font-weight="400"
       font-size="19px"
       transform="translate(588.996,121)"
       id="text15">−</text>
    <text
       font-family="'Cambria Math', 'Cambria Math_MSFontService', sans-serif"
       font-weight="400"
       font-size="19px"
       transform="translate(607.143,121)"
       id="text16">𝑓</text>
    <text
       font-family="'Cambria Math', 'Cambria Math_MSFontService', sans-serif"
       font-weight="400"
       font-size="14px"
       transform="translate(614.563,125)"
       id="text17">𝑛𝑒𝑖𝑔ℎ𝑏𝑜𝑟𝑠</text>
    <text
       font-family="'Cambria Math', 'Cambria Math_MSFontService', sans-serif"
       font-weight="400"
       font-size="19px"
       transform="translate(824.221,464)"
       id="text18">1</text>
    <text
       font-family="'Cambria Math', 'Cambria Math_MSFontService', sans-serif"
       font-weight="400"
       font-size="19px"
       transform="translate(838.701,464)"
       id="text19">−</text>
    <text
       font-family="'Cambria Math', 'Cambria Math_MSFontService', sans-serif"
       font-weight="400"
       font-size="19px"
       transform="translate(856.847,464)"
       id="text20">𝑝</text>
    <text
       font-family="'Cambria Math', 'Cambria Math_MSFontService', sans-serif"
       font-weight="400"
       font-size="14px"
       transform="translate(866.587,468)"
       id="text21">𝑣𝑒𝑟𝑖𝑓𝑦</text>
  </g>
</svg>
